<svg xmlns="http://www.w3.org/2000/svg" width="1440" height="900"><path d="M720,525L561,699L776,679Z" fill="#eeeeee" stroke="#eeeeee" stroke-width="1.51"/><path d="M720,525L462,527L561,699Z" fill="#ececec" stroke="#ececec" stroke-width="1.51"/><path d="M720,525L648,370L462,527Z" fill="#f4f4f4" stroke="#f4f4f4" stroke-width="1.51"/><path d="M776,679L991,633L720,525Z" fill="#ececec" stroke="#ececec" stroke-width="1.51"/><path d="M720,525L877,357L648,370Z" fill="#f7f7f7" stroke="#f7f7f7" stroke-width="1.51"/><path d="M716,979L910,739L776,679Z" fill="#e1e1e1" stroke="#e1e1e1" stroke-width="1.51"/><path d="M648,370L445,422L462,527Z" fill="#f1f1f1" stroke="#f1f1f1" stroke-width="1.51"/><path d="M561,699L716,979L776,679Z" fill="#e4e4e4" stroke="#e4e4e4" stroke-width="1.51"/><path d="M298,745L470,872L561,699Z" fill="#dbdbdb" stroke="#dbdbdb" stroke-width="1.51"/><path d="M298,745L561,699L462,527Z" fill="#e2e2e2" stroke="#e2e2e2" stroke-width="1.51"/><path d="M910,739L991,633L776,679Z" fill="#e5e5e5" stroke="#e5e5e5" stroke-width="1.51"/><path d="M991,633L877,357L720,525Z" fill="#f1f1f1" stroke="#f1f1f1" stroke-width="1.51"/><path d="M470,872L716,979L561,699Z" fill="#dbdbdb" stroke="#dbdbdb" stroke-width="1.51"/><path d="M265,528L298,745L462,527Z" fill="#e0e0e0" stroke="#e0e0e0" stroke-width="1.51"/><path d="M648,370L396,325L445,422Z" fill="#ececec" stroke="#ececec" stroke-width="1.51"/><path d="M877,357L691,251L648,370Z" fill="#f2f2f2" stroke="#f2f2f2" stroke-width="1.51"/><path d="M445,422L265,528L462,527Z" fill="#e9e9e9" stroke="#e9e9e9" stroke-width="1.51"/><path d="M691,251L396,325L648,370Z" fill="#ececec" stroke="#ececec" stroke-width="1.51"/><path d="M235,478L265,528L445,422Z" fill="#e7e7e7" stroke="#e7e7e7" stroke-width="1.51"/><path d="M991,633L1062,468L877,357Z" fill="#ededed" stroke="#ededed" stroke-width="1.51"/><path d="M716,979L936,980L910,739Z" fill="#d8d8d8" stroke="#d8d8d8" stroke-width="1.51"/><path d="M910,739L1120,698L991,633Z" fill="#e0e0e0" stroke="#e0e0e0" stroke-width="1.51"/><path d="M445,1153L778,1054L716,979Z" fill="#d3d3d3" stroke="#d3d3d3" stroke-width="1.51"/><path d="M470,872L445,1153L716,979Z" fill="#d1d1d1" stroke="#d1d1d1" stroke-width="1.51"/><path d="M298,745L371,960L470,872Z" fill="#d2d2d2" stroke="#d2d2d2" stroke-width="1.51"/><path d="M778,1054L936,980L716,979Z" fill="#d4d4d4" stroke="#d4d4d4" stroke-width="1.51"/><path d="M991,633L1120,698L1062,468Z" fill="#e3e3e3" stroke="#e3e3e3" stroke-width="1.51"/><path d="M73,679L214,865L298,745Z" fill="#cfcfcf" stroke="#cfcfcf" stroke-width="1.51"/><path d="M396,325L235,478L445,422Z" fill="#e8e8e8" stroke="#e8e8e8" stroke-width="1.51"/><path d="M1119,927L1120,698L910,739Z" fill="#d7d7d7" stroke="#d7d7d7" stroke-width="1.51"/><path d="M877,357L893,205L691,251Z" fill="#ebebeb" stroke="#ebebeb" stroke-width="1.51"/><path d="M1110,334L893,205L877,357Z" fill="#e7e7e7" stroke="#e7e7e7" stroke-width="1.51"/><path d="M298,745L214,865L371,960Z" fill="#cecece" stroke="#cecece" stroke-width="1.51"/><path d="M73,679L298,745L265,528Z" fill="#d8d8d8" stroke="#d8d8d8" stroke-width="1.51"/><path d="M396,325L203,277L235,478Z" fill="#e1e1e1" stroke="#e1e1e1" stroke-width="1.51"/><path d="M691,251L373,208L396,325Z" fill="#e5e5e5" stroke="#e5e5e5" stroke-width="1.51"/><path d="M622,88L373,208L691,251Z" fill="#e4e4e4" stroke="#e4e4e4" stroke-width="1.51"/><path d="M1120,698L1191,710L1062,468Z" fill="#dedede" stroke="#dedede" stroke-width="1.51"/><path d="M1119,927L1191,710L1120,698Z" fill="#d3d3d3" stroke="#d3d3d3" stroke-width="1.51"/><path d="M1344,425L1110,334L1062,468Z" fill="#e3e3e3" stroke="#e3e3e3" stroke-width="1.51"/><path d="M1062,468L1110,334L877,357Z" fill="#eaeaea" stroke="#eaeaea" stroke-width="1.51"/><path d="M1169,1124L1119,927L936,980Z" fill="#c9c9c9" stroke="#c9c9c9" stroke-width="1.51"/><path d="M936,980L1119,927L910,739Z" fill="#d3d3d3" stroke="#d3d3d3" stroke-width="1.51"/><path d="M893,205L622,88L691,251Z" fill="#e9e9e9" stroke="#e9e9e9" stroke-width="1.51"/><path d="M371,960L445,1153L470,872Z" fill="#cccccc" stroke="#cccccc" stroke-width="1.51"/><path d="M429,1164L445,1153L371,960Z" fill="#c8c8c8" stroke="#c8c8c8" stroke-width="1.51"/><path d="M778,1054L880,1170L936,980Z" fill="#d0d0d0" stroke="#d0d0d0" stroke-width="1.51"/><path d="M445,1153L880,1170L778,1054Z" fill="#d3d3d3" stroke="#d3d3d3" stroke-width="1.51"/><path d="M445,1153L429,1164L880,1170Z" fill="#cdcdcd" stroke="#cdcdcd" stroke-width="1.51"/><path d="M149,1046L429,1164L371,960Z" fill="#c5c5c5" stroke="#c5c5c5" stroke-width="1.51"/><path d="M373,208L203,277L396,325Z" fill="#dedede" stroke="#dedede" stroke-width="1.51"/><path d="M235,478L73,679L265,528Z" fill="#dbdbdb" stroke="#dbdbdb" stroke-width="1.51"/><path d="M154,188L203,277L373,208Z" fill="#d8d8d8" stroke="#d8d8d8" stroke-width="1.51"/><path d="M214,865L149,1046L371,960Z" fill="#c5c5c5" stroke="#c5c5c5" stroke-width="1.51"/><path d="M41,483L73,679L235,478Z" fill="#d9d9d9" stroke="#d9d9d9" stroke-width="1.51"/><path d="M622,88L570,19L373,208Z" fill="#dcdcdc" stroke="#dcdcdc" stroke-width="1.51"/><path d="M792,-102L570,19L622,88Z" fill="#dbdbdb" stroke="#dbdbdb" stroke-width="1.51"/><path d="M203,277L41,483L235,478Z" fill="#dedede" stroke="#dedede" stroke-width="1.51"/><path d="M44,882L149,1046L214,865Z" fill="#c1c1c1" stroke="#c1c1c1" stroke-width="1.51"/><path d="M893,205L792,-102L622,88Z" fill="#e0e0e0" stroke="#e0e0e0" stroke-width="1.51"/><path d="M1110,334L1067,104L893,205Z" fill="#dfdfdf" stroke="#dfdfdf" stroke-width="1.51"/><path d="M1346,248L1067,104L1110,334Z" fill="#d9d9d9" stroke="#d9d9d9" stroke-width="1.51"/><path d="M73,679L44,882L214,865Z" fill="#c8c8c8" stroke="#c8c8c8" stroke-width="1.51"/><path d="M-17,715L44,882L73,679Z" fill="#c8c8c8" stroke="#c8c8c8" stroke-width="1.51"/><path d="M1191,710L1339,630L1062,468Z" fill="#dcdcdc" stroke="#dcdcdc" stroke-width="1.51"/><path d="M1360,895L1339,630L1191,710Z" fill="#cecece" stroke="#cecece" stroke-width="1.51"/><path d="M203,277L-18,389L41,483Z" fill="#d8d8d8" stroke="#d8d8d8" stroke-width="1.51"/><path d="M348,-74L154,188L373,208Z" fill="#d2d2d2" stroke="#d2d2d2" stroke-width="1.51"/><path d="M41,483L-17,715L73,679Z" fill="#d0d0d0" stroke="#d0d0d0" stroke-width="1.51"/><path d="M880,1170L1169,1124L936,980Z" fill="#cacaca" stroke="#cacaca" stroke-width="1.51"/><path d="M1119,927L1360,895L1191,710Z" fill="#cbcbcb" stroke="#cbcbcb" stroke-width="1.51"/><path d="M1339,630L1344,425L1062,468Z" fill="#dfdfdf" stroke="#dfdfdf" stroke-width="1.51"/><path d="M41,483L-236,649L-17,715Z" fill="#cecece" stroke="#cecece" stroke-width="1.51"/><path d="M154,188L-18,389L203,277Z" fill="#d5d5d5" stroke="#d5d5d5" stroke-width="1.51"/><path d="M1067,104L981,-26L893,205Z" fill="#d9d9d9" stroke="#d9d9d9" stroke-width="1.51"/><path d="M1052,-78L981,-26L1067,104Z" fill="#d0d0d0" stroke="#d0d0d0" stroke-width="1.51"/><path d="M1270,1092L1360,895L1119,927Z" fill="#c1c1c1" stroke="#c1c1c1" stroke-width="1.51"/><path d="M1519,552L1463,371L1344,425Z" fill="#d9d9d9" stroke="#d9d9d9" stroke-width="1.51"/><path d="M-176,848L25,1018L44,882Z" fill="#bbbbbb" stroke="#bbbbbb" stroke-width="1.51"/><path d="M44,882L25,1018L149,1046Z" fill="#bcbcbc" stroke="#bcbcbc" stroke-width="1.51"/><path d="M149,1046L-176,1114L429,1164Z" fill="#bababa" stroke="#bababa" stroke-width="1.51"/><path d="M570,19L348,-74L373,208Z" fill="#d5d5d5" stroke="#d5d5d5" stroke-width="1.51"/><path d="M981,-26L792,-102L893,205Z" fill="#d8d8d8" stroke="#d8d8d8" stroke-width="1.51"/><path d="M1169,1124L1270,1092L1119,927Z" fill="#c2c2c2" stroke="#c2c2c2" stroke-width="1.51"/><path d="M792,-102L559,-126L570,19Z" fill="#d6d6d6" stroke="#d6d6d6" stroke-width="1.51"/><path d="M154,188L-90,97L-18,389Z" fill="#cdcdcd" stroke="#cdcdcd" stroke-width="1.51"/><path d="M559,-126L348,-74L570,19Z" fill="#d0d0d0" stroke="#d0d0d0" stroke-width="1.51"/><path d="M1344,425L1346,248L1110,334Z" fill="#dbdbdb" stroke="#dbdbdb" stroke-width="1.51"/><path d="M1463,371L1346,248L1344,425Z" fill="#d5d5d5" stroke="#d5d5d5" stroke-width="1.51"/><path d="M1360,895L1478,788L1339,630Z" fill="#c7c7c7" stroke="#c7c7c7" stroke-width="1.51"/><path d="M1417,1085L1430,888L1360,895Z" fill="#bbbbbb" stroke="#bbbbbb" stroke-width="1.51"/><path d="M981,-26L961,-229L792,-102Z" fill="#d0d0d0" stroke="#d0d0d0" stroke-width="1.51"/><path d="M792,-102L693,-262L559,-126Z" fill="#d4d4d4" stroke="#d4d4d4" stroke-width="1.51"/><path d="M1289,-99L1052,-78L1067,104Z" fill="#cacaca" stroke="#cacaca" stroke-width="1.51"/><path d="M348,-74L95,35L154,188Z" fill="#c9c9c9" stroke="#c9c9c9" stroke-width="1.51"/><path d="M-18,389L-129,400L41,483Z" fill="#d7d7d7" stroke="#d7d7d7" stroke-width="1.51"/><path d="M-17,715L-176,848L44,882Z" fill="#c2c2c2" stroke="#c2c2c2" stroke-width="1.51"/><path d="M-90,97L-129,400L-18,389Z" fill="#cecece" stroke="#cecece" stroke-width="1.51"/><path d="M1430,888L1478,788L1360,895Z" fill="#c0c0c0" stroke="#c0c0c0" stroke-width="1.51"/><path d="M1289,-99L1074,-168L1052,-78Z" fill="#c5c5c5" stroke="#c5c5c5" stroke-width="1.51"/><path d="M1519,552L1344,425L1339,630Z" fill="#d6d6d6" stroke="#d6d6d6" stroke-width="1.51"/><path d="M1478,788L1519,552L1339,630Z" fill="#cdcdcd" stroke="#cdcdcd" stroke-width="1.51"/><path d="M-236,649L-176,848L-17,715Z" fill="#c5c5c5" stroke="#c5c5c5" stroke-width="1.51"/><path d="M1586,1119L1417,1085L1169,1124Z" fill="#b6b6b6" stroke="#b6b6b6" stroke-width="1.51"/><path d="M1169,1124L1417,1085L1270,1092Z" fill="#bcbcbc" stroke="#bcbcbc" stroke-width="1.51"/><path d="M1270,1092L1417,1085L1360,895Z" fill="#bbbbbb" stroke="#bbbbbb" stroke-width="1.51"/><path d="M1430,888L1604,899L1478,788Z" fill="#bebebe" stroke="#bebebe" stroke-width="1.51"/><path d="M-129,400L-210,458L41,483Z" fill="#d6d6d6" stroke="#d6d6d6" stroke-width="1.51"/><path d="M-265,191L-210,458L-129,400Z" fill="#cecece" stroke="#cecece" stroke-width="1.51"/><path d="M559,-126L382,-227L348,-74Z" fill="#cbcbcb" stroke="#cbcbcb" stroke-width="1.51"/><path d="M348,-74L213,-282L95,35Z" fill="#c2c2c2" stroke="#c2c2c2" stroke-width="1.51"/><path d="M961,-229L693,-262L792,-102Z" fill="#d1d1d1" stroke="#d1d1d1" stroke-width="1.51"/><path d="M-210,458L-236,649L41,483Z" fill="#d2d2d2" stroke="#d2d2d2" stroke-width="1.51"/><path d="M1052,-78L961,-229L981,-26Z" fill="#cccccc" stroke="#cccccc" stroke-width="1.51"/><path d="M1289,-99L1067,104L1346,248Z" fill="#cccccc" stroke="#cccccc" stroke-width="1.51"/><path d="M693,-262L382,-227L559,-126Z" fill="#cdcdcd" stroke="#cdcdcd" stroke-width="1.51"/><path d="M1074,-168L961,-229L1052,-78Z" fill="#cacaca" stroke="#cacaca" stroke-width="1.51"/><path d="M-8,-11L-90,97L95,35Z" fill="#c0c0c0" stroke="#c0c0c0" stroke-width="1.51"/><path d="M95,35L-90,97L154,188Z" fill="#c6c6c6" stroke="#c6c6c6" stroke-width="1.51"/><path d="M213,-282L-8,-11L95,35Z" fill="#bcbcbc" stroke="#bcbcbc" stroke-width="1.51"/><path d="M1463,371L1526,228L1346,248Z" fill="#cfcfcf" stroke="#cfcfcf" stroke-width="1.51"/><path d="M1736,388L1526,228L1463,371Z" fill="#cfcfcf" stroke="#cfcfcf" stroke-width="1.51"/><path d="M1074,-168L1215,-290L961,-229Z" fill="#c5c5c5" stroke="#c5c5c5" stroke-width="1.51"/><path d="M1432,-82L1289,-99L1346,248Z" fill="#c2c2c2" stroke="#c2c2c2" stroke-width="1.51"/><path d="M-236,649L-176,1114L-176,848Z" fill="#bbbbbb" stroke="#bbbbbb" stroke-width="1.51"/><path d="M-176,848L-176,1114L25,1018Z" fill="#b6b6b6" stroke="#b6b6b6" stroke-width="1.51"/><path d="M25,1018L-176,1114L149,1046Z" fill="#b6b6b6" stroke="#b6b6b6" stroke-width="1.51"/><path d="M1417,1085L1604,899L1430,888Z" fill="#b8b8b8" stroke="#b8b8b8" stroke-width="1.51"/><path d="M1478,788L1651,609L1519,552Z" fill="#cbcbcb" stroke="#cbcbcb" stroke-width="1.51"/><path d="M1519,552L1736,388L1463,371Z" fill="#d5d5d5" stroke="#d5d5d5" stroke-width="1.51"/><path d="M1701,659L1651,609L1478,788Z" fill="#c8c8c8" stroke="#c8c8c8" stroke-width="1.51"/><path d="M382,-227L213,-282L348,-74Z" fill="#c4c4c4" stroke="#c4c4c4" stroke-width="1.51"/><path d="M693,-262L213,-282L382,-227Z" fill="#c7c7c7" stroke="#c7c7c7" stroke-width="1.51"/><path d="M-210,458L-265,191L-236,649Z" fill="#d2d2d2" stroke="#d2d2d2" stroke-width="1.51"/><path d="M-90,97L-265,191L-129,400Z" fill="#c8c8c8" stroke="#c8c8c8" stroke-width="1.51"/><path d="M-274,49L-265,191L-90,97Z" fill="#c0c0c0" stroke="#c0c0c0" stroke-width="1.51"/><path d="M-274,49L-90,97L-8,-11Z" fill="#bdbdbd" stroke="#bdbdbd" stroke-width="1.51"/><path d="M1604,899L1701,659L1478,788Z" fill="#c2c2c2" stroke="#c2c2c2" stroke-width="1.51"/><path d="M1651,609L1736,388L1519,552Z" fill="#d1d1d1" stroke="#d1d1d1" stroke-width="1.51"/><path d="M1604,899L1586,1119L1701,659Z" fill="#b9b9b9" stroke="#b9b9b9" stroke-width="1.51"/><path d="M1417,1085L1586,1119L1604,899Z" fill="#b5b5b5" stroke="#b5b5b5" stroke-width="1.51"/><path d="M880,1170L1586,1119L1169,1124Z" fill="#bebebe" stroke="#bebebe" stroke-width="1.51"/><path d="M1289,-99L1215,-290L1074,-168Z" fill="#c1c1c1" stroke="#c1c1c1" stroke-width="1.51"/><path d="M1526,228L1432,-82L1346,248Z" fill="#c6c6c6" stroke="#c6c6c6" stroke-width="1.51"/><path d="M1680,-14L1432,-82L1526,228Z" fill="#bebebe" stroke="#bebebe" stroke-width="1.51"/><path d="M1434,-248L1215,-290L1289,-99Z" fill="#bababa" stroke="#bababa" stroke-width="1.51"/><path d="M961,-229L1215,-290L693,-262Z" fill="#c9c9c9" stroke="#c9c9c9" stroke-width="1.51"/><path d="M693,-262L1215,-290L213,-282Z" fill="#d1d1d1" stroke="#d1d1d1" stroke-width="1.51"/><path d="M1701,659L1736,388L1651,609Z" fill="#cdcdcd" stroke="#cdcdcd" stroke-width="1.51"/><path d="M-265,191L-274,49L-236,649Z" fill="#cacaca" stroke="#cacaca" stroke-width="1.51"/><path d="M-111,-263L-274,49L-8,-11Z" fill="#b6b6b6" stroke="#b6b6b6" stroke-width="1.51"/><path d="M1736,388L1721,244L1526,228Z" fill="#cacaca" stroke="#cacaca" stroke-width="1.51"/><path d="M1432,-82L1434,-248L1289,-99Z" fill="#b9b9b9" stroke="#b9b9b9" stroke-width="1.51"/><path d="M1704,-119L1434,-248L1432,-82Z" fill="#b4b4b4" stroke="#b4b4b4" stroke-width="1.51"/><path d="M213,-282L-111,-263L-8,-11Z" fill="#b6b6b6" stroke="#b6b6b6" stroke-width="1.51"/><path d="M1721,244L1680,-14L1526,228Z" fill="#c2c2c2" stroke="#c2c2c2" stroke-width="1.51"/><path d="M1736,388L1704,-119L1721,244Z" fill="#c2c2c2" stroke="#c2c2c2" stroke-width="1.51"/><path d="M1721,244L1704,-119L1680,-14Z" fill="#b9b9b9" stroke="#b9b9b9" stroke-width="1.51"/><path d="M1680,-14L1704,-119L1432,-82Z" fill="#b5b5b5" stroke="#b5b5b5" stroke-width="1.51"/><path d="M213,-282L-290,-257L-111,-263Z" fill="#b1b1b1" stroke="#b1b1b1" stroke-width="1.51"/><path d="M-111,-263L-290,-257L-274,49Z" fill="#b1b1b1" stroke="#b1b1b1" stroke-width="1.51"/></svg>
