<svg xmlns="http://www.w3.org/2000/svg" width="1440" height="900"><path d="M669,437L832,468L796,220Z" fill="#fcfcfc" stroke="#fcfcfc" stroke-width="1.51"/><path d="M796,220L532,303L669,437Z" fill="#fbfbfb" stroke="#fbfbfb" stroke-width="1.51"/><path d="M669,437L616,633L832,468Z" fill="#fcfcfc" stroke="#fcfcfc" stroke-width="1.51"/><path d="M327,391L616,633L669,437Z" fill="#fcfcfc" stroke="#fcfcfc" stroke-width="1.51"/><path d="M532,303L327,391L669,437Z" fill="#fafafa" stroke="#fafafa" stroke-width="1.51"/><path d="M521,-10L399,307L532,303Z" fill="#f8f8f8" stroke="#f8f8f8" stroke-width="1.51"/><path d="M832,468L1141,258L796,220Z" fill="#fcfcfc" stroke="#fcfcfc" stroke-width="1.51"/><path d="M1127,659L1140,421L832,468Z" fill="#fdfdfd" stroke="#fdfdfd" stroke-width="1.51"/><path d="M1140,421L1141,258L832,468Z" fill="#fbfbfb" stroke="#fbfbfb" stroke-width="1.51"/><path d="M616,633L809,764L832,468Z" fill="#fdfdfd" stroke="#fdfdfd" stroke-width="1.51"/><path d="M796,220L521,-10L532,303Z" fill="#f8f8f8" stroke="#f8f8f8" stroke-width="1.51"/><path d="M746,-93L521,-10L796,220Z" fill="#f6f6f6" stroke="#f6f6f6" stroke-width="1.51"/><path d="M1089,1L746,-93L796,220Z" fill="#f7f7f7" stroke="#f7f7f7" stroke-width="1.51"/><path d="M399,307L327,391L532,303Z" fill="#f9f9f9" stroke="#f9f9f9" stroke-width="1.51"/><path d="M66,148L327,391L399,307Z" fill="#f7f7f7" stroke="#f7f7f7" stroke-width="1.51"/><path d="M809,764L1127,659L832,468Z" fill="#fefefe" stroke="#fefefe" stroke-width="1.51"/><path d="M1141,258L1089,1L796,220Z" fill="#f9f9f9" stroke="#f9f9f9" stroke-width="1.51"/><path d="M1140,421L1225,221L1141,258Z" fill="#f8f8f8" stroke="#f8f8f8" stroke-width="1.51"/><path d="M1252,465L1225,221L1140,421Z" fill="#f8f8f8" stroke="#f8f8f8" stroke-width="1.51"/><path d="M1225,221L1089,1L1141,258Z" fill="#f6f6f6" stroke="#f6f6f6" stroke-width="1.51"/><path d="M1127,659L1252,465L1140,421Z" fill="#fafafa" stroke="#fafafa" stroke-width="1.51"/><path d="M327,391L348,644L616,633Z" fill="#fbfbfb" stroke="#fbfbfb" stroke-width="1.51"/><path d="M534,841L827,871L809,764Z" fill="#f8f8f8" stroke="#f8f8f8" stroke-width="1.51"/><path d="M809,764L1081,875L1127,659Z" fill="#fafafa" stroke="#fafafa" stroke-width="1.51"/><path d="M534,841L809,764L616,633Z" fill="#fafafa" stroke="#fafafa" stroke-width="1.51"/><path d="M348,644L534,841L616,633Z" fill="#fafafa" stroke="#fafafa" stroke-width="1.51"/><path d="M521,-10L400,-72L399,307Z" fill="#f5f5f5" stroke="#f5f5f5" stroke-width="1.51"/><path d="M563,-244L400,-72L521,-10Z" fill="#ececec" stroke="#ececec" stroke-width="1.51"/><path d="M746,-93L563,-244L521,-10Z" fill="#ebebeb" stroke="#ebebeb" stroke-width="1.51"/><path d="M1089,1L870,-203L746,-93Z" fill="#efefef" stroke="#efefef" stroke-width="1.51"/><path d="M1127,659L1341,705L1252,465Z" fill="#f9f9f9" stroke="#f9f9f9" stroke-width="1.51"/><path d="M827,871L1081,875L809,764Z" fill="#f9f9f9" stroke="#f9f9f9" stroke-width="1.51"/><path d="M348,644L299,935L534,841Z" fill="#f6f6f6" stroke="#f6f6f6" stroke-width="1.51"/><path d="M327,391L176,499L348,644Z" fill="#f9f9f9" stroke="#f9f9f9" stroke-width="1.51"/><path d="M66,148L176,499L327,391Z" fill="#f6f6f6" stroke="#f6f6f6" stroke-width="1.51"/><path d="M870,-203L563,-244L746,-93Z" fill="#e6e6e6" stroke="#e6e6e6" stroke-width="1.51"/><path d="M1089,1L1086,-195L870,-203Z" fill="#ebebeb" stroke="#ebebeb" stroke-width="1.51"/><path d="M870,-203L1086,-195L563,-244Z" fill="#e2e2e2" stroke="#e2e2e2" stroke-width="1.51"/><path d="M1335,-85L1086,-195L1089,1Z" fill="#ececec" stroke="#ececec" stroke-width="1.51"/><path d="M1081,875L1245,820L1127,659Z" fill="#f7f7f7" stroke="#f7f7f7" stroke-width="1.51"/><path d="M1245,820L1341,705L1127,659Z" fill="#f6f6f6" stroke="#f6f6f6" stroke-width="1.51"/><path d="M1436,-34L1335,-85L1225,221Z" fill="#f1f1f1" stroke="#f1f1f1" stroke-width="1.51"/><path d="M1436,-34L1225,221L1604,149Z" fill="#efefef" stroke="#efefef" stroke-width="1.51"/><path d="M1225,221L1335,-85L1089,1Z" fill="#f3f3f3" stroke="#f3f3f3" stroke-width="1.51"/><path d="M152,-66L66,148L400,-72Z" fill="#f1f1f1" stroke="#f1f1f1" stroke-width="1.51"/><path d="M400,-72L66,148L399,307Z" fill="#f4f4f4" stroke="#f4f4f4" stroke-width="1.51"/><path d="M296,-233L152,-66L400,-72Z" fill="#e8e8e8" stroke="#e8e8e8" stroke-width="1.51"/><path d="M679,1160L890,1145L827,871Z" fill="#e8e8e8" stroke="#e8e8e8" stroke-width="1.51"/><path d="M890,1145L1148,1058L1081,875Z" fill="#ebebeb" stroke="#ebebeb" stroke-width="1.51"/><path d="M164,837L299,935L348,644Z" fill="#f4f4f4" stroke="#f4f4f4" stroke-width="1.51"/><path d="M92,708L348,644L176,499Z" fill="#f9f9f9" stroke="#f9f9f9" stroke-width="1.51"/><path d="M563,-244L296,-233L400,-72Z" fill="#e3e3e3" stroke="#e3e3e3" stroke-width="1.51"/><path d="M1,435L92,708L176,499Z" fill="#f7f7f7" stroke="#f7f7f7" stroke-width="1.51"/><path d="M1532,538L1225,221L1252,465Z" fill="#f6f6f6" stroke="#f6f6f6" stroke-width="1.51"/><path d="M66,148L1,435L176,499Z" fill="#f5f5f5" stroke="#f5f5f5" stroke-width="1.51"/><path d="M92,708L164,837L348,644Z" fill="#f5f5f5" stroke="#f5f5f5" stroke-width="1.51"/><path d="M1341,705L1532,538L1252,465Z" fill="#f6f6f6" stroke="#f6f6f6" stroke-width="1.51"/><path d="M1612,630L1532,538L1341,705Z" fill="#efefef" stroke="#efefef" stroke-width="1.51"/><path d="M1436,-34L1366,-174L1335,-85Z" fill="#e7e7e7" stroke="#e7e7e7" stroke-width="1.51"/><path d="M1335,-85L1366,-174L1086,-195Z" fill="#e4e4e4" stroke="#e4e4e4" stroke-width="1.51"/><path d="M1086,-195L1464,-219L563,-244Z" fill="#e1e1e1" stroke="#e1e1e1" stroke-width="1.51"/><path d="M1547,954L1612,630L1341,705Z" fill="#ececec" stroke="#ececec" stroke-width="1.51"/><path d="M1081,875L1148,1058L1245,820Z" fill="#f3f3f3" stroke="#f3f3f3" stroke-width="1.51"/><path d="M890,1145L1081,875L827,871Z" fill="#f3f3f3" stroke="#f3f3f3" stroke-width="1.51"/><path d="M679,1160L827,871L534,841Z" fill="#f2f2f2" stroke="#f2f2f2" stroke-width="1.51"/><path d="M344,1109L679,1160L534,841Z" fill="#e9e9e9" stroke="#e9e9e9" stroke-width="1.51"/><path d="M563,-244L210,-263L296,-233Z" fill="#dcdcdc" stroke="#dcdcdc" stroke-width="1.51"/><path d="M296,-233L210,-263L152,-66Z" fill="#e0e0e0" stroke="#e0e0e0" stroke-width="1.51"/><path d="M-158,-73L-170,286L66,148Z" fill="#e8e8e8" stroke="#e8e8e8" stroke-width="1.51"/><path d="M1532,538L1604,149L1225,221Z" fill="#f1f1f1" stroke="#f1f1f1" stroke-width="1.51"/><path d="M1436,-34L1464,-219L1366,-174Z" fill="#e1e1e1" stroke="#e1e1e1" stroke-width="1.51"/><path d="M299,935L344,1109L534,841Z" fill="#efefef" stroke="#efefef" stroke-width="1.51"/><path d="M165,1221L344,1109L299,935Z" fill="#e0e0e0" stroke="#e0e0e0" stroke-width="1.51"/><path d="M1547,954L1341,705L1245,820Z" fill="#f1f1f1" stroke="#f1f1f1" stroke-width="1.51"/><path d="M1532,538L1703,385L1604,149Z" fill="#e5e5e5" stroke="#e5e5e5" stroke-width="1.51"/><path d="M1804,-266L1464,-219L1436,-34Z" fill="#d3d3d3" stroke="#d3d3d3" stroke-width="1.51"/><path d="M1366,-174L1464,-219L1086,-195Z" fill="#dedede" stroke="#dedede" stroke-width="1.51"/><path d="M563,-244L1804,-266L210,-263Z" fill="#dedede" stroke="#dedede" stroke-width="1.51"/><path d="M1604,149L1841,43L1436,-34Z" fill="#dfdfdf" stroke="#dfdfdf" stroke-width="1.51"/><path d="M1612,630L1703,385L1532,538Z" fill="#e6e6e6" stroke="#e6e6e6" stroke-width="1.51"/><path d="M66,148L-170,286L1,435Z" fill="#efefef" stroke="#efefef" stroke-width="1.51"/><path d="M1,435L-138,670L92,708Z" fill="#f3f3f3" stroke="#f3f3f3" stroke-width="1.51"/><path d="M92,708L-48,996L164,837Z" fill="#f1f1f1" stroke="#f1f1f1" stroke-width="1.51"/><path d="M-158,-73L66,148L152,-66Z" fill="#eeeeee" stroke="#eeeeee" stroke-width="1.51"/><path d="M-170,286L-138,670L1,435Z" fill="#ebebeb" stroke="#ebebeb" stroke-width="1.51"/><path d="M164,837L-48,996L299,935Z" fill="#f0f0f0" stroke="#f0f0f0" stroke-width="1.51"/><path d="M1612,630L1712,631L1703,385Z" fill="#e2e2e2" stroke="#e2e2e2" stroke-width="1.51"/><path d="M1696,843L1712,631L1612,630Z" fill="#e0e0e0" stroke="#e0e0e0" stroke-width="1.51"/><path d="M1331,1186L1547,954L1245,820Z" fill="#e9e9e9" stroke="#e9e9e9" stroke-width="1.51"/><path d="M1331,1186L1245,820L1148,1058Z" fill="#e7e7e7" stroke="#e7e7e7" stroke-width="1.51"/><path d="M679,1160L1331,1186L890,1145Z" fill="#dddddd" stroke="#dddddd" stroke-width="1.51"/><path d="M890,1145L1331,1186L1148,1058Z" fill="#dedede" stroke="#dedede" stroke-width="1.51"/><path d="M-75,-258L-158,-73L152,-66Z" fill="#dfdfdf" stroke="#dfdfdf" stroke-width="1.51"/><path d="M-158,-73L-245,244L-170,286Z" fill="#e1e1e1" stroke="#e1e1e1" stroke-width="1.51"/><path d="M-170,286L-397,451L-138,670Z" fill="#e2e2e2" stroke="#e2e2e2" stroke-width="1.51"/><path d="M210,-263L-75,-258L152,-66Z" fill="#dddddd" stroke="#dddddd" stroke-width="1.51"/><path d="M-138,670L-48,996L92,708Z" fill="#ededed" stroke="#ededed" stroke-width="1.51"/><path d="M1702,1081L1696,843L1547,954Z" fill="#d9d9d9" stroke="#d9d9d9" stroke-width="1.51"/><path d="M1547,954L1696,843L1612,630Z" fill="#e2e2e2" stroke="#e2e2e2" stroke-width="1.51"/><path d="M-48,996L165,1221L299,935Z" fill="#e3e3e3" stroke="#e3e3e3" stroke-width="1.51"/><path d="M344,1109L165,1221L679,1160Z" fill="#dadada" stroke="#dadada" stroke-width="1.51"/><path d="M679,1160L165,1221L1331,1186Z" fill="#dadada" stroke="#dadada" stroke-width="1.51"/><path d="M1703,385L1830,178L1604,149Z" fill="#dcdcdc" stroke="#dcdcdc" stroke-width="1.51"/><path d="M1712,631L1830,178L1703,385Z" fill="#dcdcdc" stroke="#dcdcdc" stroke-width="1.51"/><path d="M1696,843L1830,178L1712,631Z" fill="#dddddd" stroke="#dddddd" stroke-width="1.51"/><path d="M-235,767L-48,996L-138,670Z" fill="#e4e4e4" stroke="#e4e4e4" stroke-width="1.51"/><path d="M-330,973L-56,1054L-48,996Z" fill="#d9d9d9" stroke="#d9d9d9" stroke-width="1.51"/><path d="M-48,996L-56,1054L165,1221Z" fill="#dcdcdc" stroke="#dcdcdc" stroke-width="1.51"/><path d="M-397,451L-235,767L-138,670Z" fill="#e0e0e0" stroke="#e0e0e0" stroke-width="1.51"/><path d="M-245,244L-397,451L-170,286Z" fill="#dedede" stroke="#dedede" stroke-width="1.51"/><path d="M-158,-73L-255,-59L-245,244Z" fill="#dddddd" stroke="#dddddd" stroke-width="1.51"/><path d="M-75,-258L-255,-59L-158,-73Z" fill="#d5d5d5" stroke="#d5d5d5" stroke-width="1.51"/><path d="M1830,178L1841,43L1604,149Z" fill="#d7d7d7" stroke="#d7d7d7" stroke-width="1.51"/><path d="M165,1221L1573,1200L1331,1186Z" fill="#d8d8d8" stroke="#d8d8d8" stroke-width="1.51"/><path d="M1331,1186L1573,1200L1547,954Z" fill="#d5d5d5" stroke="#d5d5d5" stroke-width="1.51"/><path d="M-392,-202L-397,451L-245,244Z" fill="#d6d6d6" stroke="#d6d6d6" stroke-width="1.51"/><path d="M1573,1200L1702,1081L1547,954Z" fill="#d0d0d0" stroke="#d0d0d0" stroke-width="1.51"/><path d="M1696,843L1702,1081L1830,178Z" fill="#dbdbdb" stroke="#dbdbdb" stroke-width="1.51"/><path d="M1841,43L1804,-266L1436,-34Z" fill="#d3d3d3" stroke="#d3d3d3" stroke-width="1.51"/><path d="M1464,-219L1804,-266L563,-244Z" fill="#dadada" stroke="#dadada" stroke-width="1.51"/><path d="M-397,451L-330,973L-235,767Z" fill="#d9d9d9" stroke="#d9d9d9" stroke-width="1.51"/><path d="M-235,767L-330,973L-48,996Z" fill="#dddddd" stroke="#dddddd" stroke-width="1.51"/><path d="M-56,1054L-381,1099L165,1221Z" fill="#d0d0d0" stroke="#d0d0d0" stroke-width="1.51"/><path d="M-255,-59L-392,-202L-245,244Z" fill="#d6d6d6" stroke="#d6d6d6" stroke-width="1.51"/><path d="M-75,-258L-392,-202L-255,-59Z" fill="#cbcbcb" stroke="#cbcbcb" stroke-width="1.51"/><path d="M-397,451L-381,1099L-330,973Z" fill="#d3d3d3" stroke="#d3d3d3" stroke-width="1.51"/><path d="M-330,973L-381,1099L-56,1054Z" fill="#cdcdcd" stroke="#cdcdcd" stroke-width="1.51"/></svg>
